<mxfile host="app.diagrams.net" modified="2021-04-19T02:09:18.529Z" agent="5.0 (Windows NT 6.1; Win64; x64) AppleWebKit/537.36 (KHTML, like Gecko) Chrome/89.0.4389.72 Safari/537.36" etag="Uz1l3YBrlCeI7g8KHaDu" version="14.2.9" type="github">
  <diagram id="P3gFB_s1CwVuFlFn_yZa" name="第 1 页">
    <mxGraphModel dx="1414" dy="786" grid="0" gridSize="10" guides="1" tooltips="1" connect="1" arrows="1" fold="1" page="0" pageScale="1" pageWidth="827" pageHeight="1169" math="0" shadow="0">
      <root>
        <mxCell id="0" />
        <mxCell id="1" parent="0" />
        <mxCell id="Dgm70YNgPvSOrI7n2aV8-8" value="" style="edgeStyle=orthogonalEdgeStyle;rounded=0;orthogonalLoop=1;jettySize=auto;html=1;" edge="1" parent="1" source="Dgm70YNgPvSOrI7n2aV8-1" target="Dgm70YNgPvSOrI7n2aV8-2">
          <mxGeometry relative="1" as="geometry" />
        </mxCell>
        <mxCell id="Dgm70YNgPvSOrI7n2aV8-1" value="开始" style="ellipse;whiteSpace=wrap;html=1;" vertex="1" parent="1">
          <mxGeometry x="100" y="40" width="120" height="80" as="geometry" />
        </mxCell>
        <mxCell id="Dgm70YNgPvSOrI7n2aV8-9" value="" style="edgeStyle=orthogonalEdgeStyle;rounded=0;orthogonalLoop=1;jettySize=auto;html=1;" edge="1" parent="1" source="Dgm70YNgPvSOrI7n2aV8-2" target="Dgm70YNgPvSOrI7n2aV8-4">
          <mxGeometry relative="1" as="geometry" />
        </mxCell>
        <mxCell id="Dgm70YNgPvSOrI7n2aV8-2" value="解析消息，及产品获得的规则集合" style="rounded=0;whiteSpace=wrap;html=1;" vertex="1" parent="1">
          <mxGeometry x="100" y="150" width="120" height="60" as="geometry" />
        </mxCell>
        <mxCell id="Dgm70YNgPvSOrI7n2aV8-11" value="" style="edgeStyle=orthogonalEdgeStyle;rounded=0;orthogonalLoop=1;jettySize=auto;html=1;" edge="1" parent="1" source="Dgm70YNgPvSOrI7n2aV8-3" target="Dgm70YNgPvSOrI7n2aV8-5">
          <mxGeometry relative="1" as="geometry" />
        </mxCell>
        <mxCell id="Dgm70YNgPvSOrI7n2aV8-3" value="查询字段解析与转换&lt;br&gt;SQL：item" style="rounded=0;whiteSpace=wrap;html=1;" vertex="1" parent="1">
          <mxGeometry x="100" y="330" width="120" height="60" as="geometry" />
        </mxCell>
        <mxCell id="Dgm70YNgPvSOrI7n2aV8-10" value="" style="edgeStyle=orthogonalEdgeStyle;rounded=0;orthogonalLoop=1;jettySize=auto;html=1;" edge="1" parent="1" source="Dgm70YNgPvSOrI7n2aV8-4" target="Dgm70YNgPvSOrI7n2aV8-3">
          <mxGeometry relative="1" as="geometry" />
        </mxCell>
        <mxCell id="Dgm70YNgPvSOrI7n2aV8-4" value="拼接基础SQL" style="rounded=0;whiteSpace=wrap;html=1;" vertex="1" parent="1">
          <mxGeometry x="100" y="240" width="120" height="60" as="geometry" />
        </mxCell>
        <mxCell id="Dgm70YNgPvSOrI7n2aV8-12" value="" style="edgeStyle=orthogonalEdgeStyle;rounded=0;orthogonalLoop=1;jettySize=auto;html=1;" edge="1" parent="1" source="Dgm70YNgPvSOrI7n2aV8-5" target="Dgm70YNgPvSOrI7n2aV8-7">
          <mxGeometry relative="1" as="geometry" />
        </mxCell>
        <mxCell id="Dgm70YNgPvSOrI7n2aV8-5" value="查询基本条件解析&lt;br&gt;SQL：where" style="rounded=0;whiteSpace=wrap;html=1;" vertex="1" parent="1">
          <mxGeometry x="100" y="420" width="120" height="60" as="geometry" />
        </mxCell>
        <mxCell id="Dgm70YNgPvSOrI7n2aV8-14" value="" style="edgeStyle=orthogonalEdgeStyle;rounded=0;orthogonalLoop=1;jettySize=auto;html=1;" edge="1" parent="1" source="Dgm70YNgPvSOrI7n2aV8-7" target="Dgm70YNgPvSOrI7n2aV8-13">
          <mxGeometry relative="1" as="geometry" />
        </mxCell>
        <mxCell id="Dgm70YNgPvSOrI7n2aV8-7" value="查询IN、OR、LIKE条件解析" style="rounded=0;whiteSpace=wrap;html=1;" vertex="1" parent="1">
          <mxGeometry x="100" y="510" width="120" height="60" as="geometry" />
        </mxCell>
        <mxCell id="Dgm70YNgPvSOrI7n2aV8-16" value="" style="edgeStyle=orthogonalEdgeStyle;rounded=0;orthogonalLoop=1;jettySize=auto;html=1;" edge="1" parent="1" source="Dgm70YNgPvSOrI7n2aV8-13" target="Dgm70YNgPvSOrI7n2aV8-15">
          <mxGeometry relative="1" as="geometry" />
        </mxCell>
        <mxCell id="Dgm70YNgPvSOrI7n2aV8-19" value="" style="edgeStyle=orthogonalEdgeStyle;rounded=0;orthogonalLoop=1;jettySize=auto;html=1;" edge="1" parent="1" source="Dgm70YNgPvSOrI7n2aV8-13" target="Dgm70YNgPvSOrI7n2aV8-18">
          <mxGeometry relative="1" as="geometry" />
        </mxCell>
        <mxCell id="Dgm70YNgPvSOrI7n2aV8-13" value="消息载体数据类型 是否为&lt;br&gt;binary" style="rhombus;whiteSpace=wrap;html=1;" vertex="1" parent="1">
          <mxGeometry x="120" y="610" width="80" height="80" as="geometry" />
        </mxCell>
        <mxCell id="Dgm70YNgPvSOrI7n2aV8-22" value="" style="edgeStyle=orthogonalEdgeStyle;rounded=0;orthogonalLoop=1;jettySize=auto;html=1;" edge="1" parent="1" source="Dgm70YNgPvSOrI7n2aV8-15">
          <mxGeometry relative="1" as="geometry">
            <mxPoint x="160" y="830" as="targetPoint" />
          </mxGeometry>
        </mxCell>
        <mxCell id="Dgm70YNgPvSOrI7n2aV8-15" value="执行json解析" style="whiteSpace=wrap;html=1;" vertex="1" parent="1">
          <mxGeometry x="100" y="730" width="120" height="60" as="geometry" />
        </mxCell>
        <mxCell id="Dgm70YNgPvSOrI7n2aV8-17" value="否" style="text;html=1;align=center;verticalAlign=middle;resizable=0;points=[];autosize=1;" vertex="1" parent="1">
          <mxGeometry x="135" y="700" width="30" height="20" as="geometry" />
        </mxCell>
        <mxCell id="Dgm70YNgPvSOrI7n2aV8-25" style="edgeStyle=orthogonalEdgeStyle;rounded=0;orthogonalLoop=1;jettySize=auto;html=1;exitX=0.5;exitY=1;exitDx=0;exitDy=0;" edge="1" parent="1" source="Dgm70YNgPvSOrI7n2aV8-18" target="Dgm70YNgPvSOrI7n2aV8-24">
          <mxGeometry relative="1" as="geometry">
            <Array as="points">
              <mxPoint x="320" y="820" />
              <mxPoint x="160" y="820" />
            </Array>
          </mxGeometry>
        </mxCell>
        <mxCell id="Dgm70YNgPvSOrI7n2aV8-18" value="不执行json解析" style="whiteSpace=wrap;html=1;" vertex="1" parent="1">
          <mxGeometry x="260" y="620" width="120" height="60" as="geometry" />
        </mxCell>
        <mxCell id="Dgm70YNgPvSOrI7n2aV8-20" value="是" style="text;html=1;align=center;verticalAlign=middle;resizable=0;points=[];autosize=1;" vertex="1" parent="1">
          <mxGeometry x="215" y="630" width="30" height="20" as="geometry" />
        </mxCell>
        <mxCell id="Dgm70YNgPvSOrI7n2aV8-27" value="" style="edgeStyle=orthogonalEdgeStyle;rounded=0;orthogonalLoop=1;jettySize=auto;html=1;" edge="1" parent="1" source="Dgm70YNgPvSOrI7n2aV8-24" target="Dgm70YNgPvSOrI7n2aV8-26">
          <mxGeometry relative="1" as="geometry" />
        </mxCell>
        <mxCell id="Dgm70YNgPvSOrI7n2aV8-35" style="edgeStyle=orthogonalEdgeStyle;rounded=0;orthogonalLoop=1;jettySize=auto;html=1;exitX=1;exitY=0.5;exitDx=0;exitDy=0;entryX=1;entryY=0.5;entryDx=0;entryDy=0;" edge="1" parent="1" source="Dgm70YNgPvSOrI7n2aV8-24" target="Dgm70YNgPvSOrI7n2aV8-29">
          <mxGeometry relative="1" as="geometry">
            <Array as="points">
              <mxPoint x="318" y="870" />
              <mxPoint x="318" y="1147" />
            </Array>
          </mxGeometry>
        </mxCell>
        <mxCell id="Dgm70YNgPvSOrI7n2aV8-24" value="消息字段是否全部满足规则字段" style="rhombus;whiteSpace=wrap;html=1;" vertex="1" parent="1">
          <mxGeometry x="120" y="830" width="80" height="80" as="geometry" />
        </mxCell>
        <mxCell id="Dgm70YNgPvSOrI7n2aV8-33" value="" style="edgeStyle=orthogonalEdgeStyle;rounded=0;orthogonalLoop=1;jettySize=auto;html=1;" edge="1" parent="1" source="Dgm70YNgPvSOrI7n2aV8-26" target="Dgm70YNgPvSOrI7n2aV8-32">
          <mxGeometry relative="1" as="geometry" />
        </mxCell>
        <mxCell id="Dgm70YNgPvSOrI7n2aV8-26" value="生成规则引擎运行模板文件" style="whiteSpace=wrap;html=1;" vertex="1" parent="1">
          <mxGeometry x="100" y="943" width="120" height="60" as="geometry" />
        </mxCell>
        <mxCell id="Dgm70YNgPvSOrI7n2aV8-28" value="是" style="text;html=1;align=center;verticalAlign=middle;resizable=0;points=[];autosize=1;" vertex="1" parent="1">
          <mxGeometry x="126" y="918" width="22" height="18" as="geometry" />
        </mxCell>
        <mxCell id="Dgm70YNgPvSOrI7n2aV8-29" value="结束" style="ellipse;whiteSpace=wrap;html=1;" vertex="1" parent="1">
          <mxGeometry x="100" y="1107" width="120" height="80" as="geometry" />
        </mxCell>
        <mxCell id="Dgm70YNgPvSOrI7n2aV8-31" value="否" style="text;html=1;align=center;verticalAlign=middle;resizable=0;points=[];autosize=1;" vertex="1" parent="1">
          <mxGeometry x="241" y="847" width="22" height="18" as="geometry" />
        </mxCell>
        <mxCell id="Dgm70YNgPvSOrI7n2aV8-34" value="" style="edgeStyle=orthogonalEdgeStyle;rounded=0;orthogonalLoop=1;jettySize=auto;html=1;" edge="1" parent="1" source="Dgm70YNgPvSOrI7n2aV8-32" target="Dgm70YNgPvSOrI7n2aV8-29">
          <mxGeometry relative="1" as="geometry" />
        </mxCell>
        <mxCell id="Dgm70YNgPvSOrI7n2aV8-32" value="执行规则引擎" style="whiteSpace=wrap;html=1;" vertex="1" parent="1">
          <mxGeometry x="100" y="1025" width="120" height="60" as="geometry" />
        </mxCell>
      </root>
    </mxGraphModel>
  </diagram>
</mxfile>
